# xmcd CD database file
#
# Track frame offsets:
#	150
#	15799
#	31651
#	47775
#	62074
#	81223
#	96787
#	114683
#	131885
#	145369
#
# Disc length: 2161 seconds
#
# Revision: 1
# Processed by: cddbd v1.5.1PL2 Copyright (c) Steve Scherf et al.
# Submitted via: CDex 1.51
#
DISCID=80086f0a
DTITLE=Richie Furey - I Still Have Dreams
DYEAR=1979
DGENRE=Westcoast Rock
TTITLE0=Oooh Child
TTITLE1=Lonely Too Long
TTITLE2=Island Love
TTITLE3=Come On
TTITLE4=I Was A Fool
TTITLE5=I Still Have Dreams
TTITLE6=Satisfied
TTITLE7=Headin' South
TTITLE8=Oh Mary
TTITLE9=What's The Matter, Please?
EXTD=YEAR: 1979
EXTT0=
EXTT1=
EXTT2=
EXTT3=
EXTT4=
EXTT5=
EXTT6=
EXTT7=
EXTT8=
EXTT9=
PLAYORDER=
